<?xml version="1.0" encoding="UTF-8" standalone="no"?>
<svg
   version="1.1"
   width="51.253998"
   height="53.508209"
   id="svg53"
   xmlns="http://www.w3.org/2000/svg"
   xmlns:svg="http://www.w3.org/2000/svg">
  <defs
     id="defs53" />
  <g
     id="g55"
     transform="matrix(0.11441665,0,0,0.11441665,-30.510142,-25.107138)">
    <path
       d="m 323.70184,366.63046 c 11.29643,7.13192 22.18109,21.00477 25.22021,34.2533 0.0647,0.39978 0.12937,0.79956 0.19602,1.21145 0.36772,0 0.73545,0 1.11432,0 0.097,-0.59529 0.097,-0.59529 0.19602,-1.20261 2.93413,-12.86265 12.63185,-25.64994 23.53348,-32.72777 8.80547,-5.51004 18.32523,-8.85437 28.78315,-6.81219 0.68949,0.20685 1.37898,0.41369 2.08936,0.62681 0.18386,0.36773 0.36773,0.73545 0.55716,1.11432 -0.27148,0.13 -0.54297,0.26 -0.82268,0.39394 -6.47495,3.33165 -11.93027,8.33626 -17.20895,13.28486 -1.23029,1.1428 -2.47899,2.23881 -3.76738,3.31469 -1.65825,1.31823 -1.65825,1.31823 -2.71617,3.0644 -0.36773,0 -0.73546,0 -1.11433,0 -0.22516,0.50203 -0.22516,0.50203 -0.45487,1.01421 -0.66393,1.22268 -1.27271,1.89046 -2.29612,2.81628 -2.8756,2.78555 -5.234,5.99172 -7.66889,9.15838 -1.0128,1.31636 -2.03496,2.62538 -3.05651,3.93496 -0.52255,0.67308 -1.04499,1.34624 -1.56702,2.01972 1.20632,-0.58777 2.37657,-1.20047 3.53668,-1.87607 10.91574,-6.06256 25.71018,-6.70241 37.69341,-4.25273 9.08411,2.60089 17.55164,7.08646 22.28653,15.60058 0.19995,0.73918 0.38813,1.48179 0.55716,2.22865 -0.35026,-0.0477 -0.70053,-0.0954 -1.06141,-0.1446 -18.96856,-2.5695 -37.87559,-3.77702 -56.32641,2.37325 0.37922,0.15586 0.75844,0.31171 1.14915,0.47229 1.49723,0.6192 2.99196,1.24407 4.48533,1.87253 0.714,0.29946 1.42881,0.59702 2.14431,0.89288 13.19709,5.46915 25.17732,13.89993 30.83959,27.51075 0.32117,0.89103 0.63493,1.78476 0.94022,2.68135 0.15944,0.4058 0.31889,0.81159 0.48316,1.22968 2.34422,6.55265 2.48202,14.94661 0.63116,21.61402 -0.36772,0.36773 -0.73545,0.73546 -1.11432,1.11433 -0.31817,-0.46613 -0.63634,-0.93225 -0.96416,-1.4125 -3.6211,-5.2277 -7.61043,-10.01193 -11.8506,-14.74524 -0.52317,-0.59262 -1.04624,-1.18533 -1.5692,-1.77813 -9.33676,-10.48718 -20.40601,-19.66277 -33.53209,-24.96571 0.22336,0.31961 0.44673,0.63921 0.67687,0.96851 8.97124,13.406 14.03131,29.37885 11.21944,45.58292 -1.1725,4.74512 -3.12749,9.49373 -5.76751,13.62221 -0.5516,0.18387 -1.10319,0.36773 -1.67149,0.55716 -0.11564,-0.61048 -0.23127,-1.22097 -0.35041,-1.84995 -3.65501,-18.95299 -7.62035,-39.2234 -18.59315,-55.53787 -0.36773,-0.18386 -0.73545,-0.36773 -1.11432,-0.55716 -0.15559,0.40229 -0.31117,0.80458 -0.47147,1.21906 -0.6113,1.48982 -1.28867,2.91102 -2.01401,4.34822 -3.01325,6.05698 -5.67581,11.72762 -6.9863,18.39074 -0.0728,0.36094 -0.14567,0.72187 -0.2207,1.09374 -1.69076,8.68311 -1.69216,17.3407 -1.63243,26.1533 0.008,1.25441 0.012,2.5088 0.0153,3.76323 0.0741,26.87067 0.67621,53.76027 1.6572,80.61287 0.13567,3.79468 0.23264,7.58692 0.27857,11.38373 0.17311,14.09256 0.72101,28.15135 1.43193,42.22553 0.0704,1.39862 0.13984,2.79728 0.20904,4.19596 0.51273,10.31085 1.13423,20.60861 1.92183,30.90233 0.0356,0.46909 0.0712,0.93818 0.10786,1.42148 0.10144,1.32687 0.2053,2.65353 0.31028,3.98012 0.0299,0.38923 0.0598,0.77846 0.0907,1.17948 0.17708,2.18477 0.45266,4.3253 0.8449,6.48179 4.6992,-13.98145 9.36616,-27.97066 13.82461,-42.03101 2.98552,-9.40895 6.04239,-18.78907 9.186,-28.14627 2.30936,-6.87463 4.6044,-13.75405 6.89945,-20.63347 0.38464,-1.15286 0.7694,-2.30568 1.15418,-3.45849 3.52503,-10.56296 7.01869,-21.13542 10.43001,-31.73578 0.82998,-2.57493 1.67028,-5.14624 2.52165,-7.71418 0.16441,-0.4963 0.32881,-0.9926 0.4982,-1.50394 0.51416,-1.54157 1.03619,-3.08025 1.5607,-4.61833 0.15885,-0.47713 0.31771,-0.95426 0.48138,-1.44585 0.15294,-0.44313 0.30588,-0.88626 0.46345,-1.34282 0.13292,-0.39138 0.26585,-0.78275 0.40279,-1.18599 0.57858,-1.22642 1.07719,-1.90267 2.16512,-2.71783 1.2163,-0.201 1.2163,-0.201 2.64475,-0.18975 0.53531,1.2e-4 1.07061,2.5e-4 1.62214,3.8e-4 0.86454,0.0129 0.86454,0.0129 1.74655,0.0261 0.88687,0.004 0.88687,0.004 1.79165,0.007 1.89057,0.009 3.78082,0.0303 5.67129,0.0516 1.28082,0.008 2.56165,0.016 3.84247,0.0229 3.14178,0.0184 6.28336,0.0464 9.42499,0.0816 0.12986,-0.66031 0.25972,-1.32062 0.39352,-2.00094 0.84447,-3.78684 2.11341,-7.43746 3.33904,-11.11416 0.26316,-0.79572 0.52607,-1.59152 0.78874,-2.3874 0.55752,-1.68797 1.11639,-3.3755 1.67637,-5.06265 1.46868,-4.42557 2.92841,-8.85409 4.38843,-13.28252 0.14526,-0.44034 0.29052,-0.88068 0.44018,-1.33436 2.53577,-7.68876 5.01934,-15.39312 7.46458,-23.11118 2.44992,-7.72289 4.93105,-15.43372 7.48688,-23.12228 0.20155,-0.60891 0.20155,-0.60891 0.40718,-1.23012 0.84351,-2.54515 1.70783,-5.08198 2.58757,-7.61485 0.23324,-0.68572 0.46648,-1.37144 0.70679,-2.07794 0.34609,-0.96878 0.34609,-0.96878 0.69918,-1.95714 0.29882,-0.84988 0.29882,-0.84988 0.60368,-1.71692 1.01148,-1.9432 1.64502,-2.59935 3.56198,-3.71978 2.30496,-0.33597 4.59532,-0.29843 6.92102,-0.27953 0.70239,-0.003 1.40479,-0.006 2.12847,-0.009 1.9225,-0.008 3.84472,-0.002 5.76721,0.008 2.01386,0.008 4.0277,0.004 6.04156,0.002 3.38166,-0.001 6.76321,0.006 10.14484,0.0189 3.90712,0.0148 7.81406,0.0158 11.7212,0.009 3.76177,-0.006 7.52348,-0.003 11.28525,0.005 1.59946,0.003 3.19887,0.003 4.79832,5.2e-4 2.23422,-0.003 4.46817,0.008 6.70236,0.0197 0.66289,-0.003 1.32578,-0.005 2.00876,-0.008 0.60925,0.006 1.21851,0.011 1.84622,0.0167 0.52795,0.001 1.05589,0.003 1.59984,0.004 2.18453,0.31572 3.67599,1.27214 5.17724,2.86524 0.9704,1.6213 1.51421,3.24076 2.10026,5.03799 0.12485,0.37858 0.24969,0.75715 0.37832,1.14719 0.41449,1.25962 0.82313,2.52107 1.23196,3.78254 0.29476,0.89865 0.59,1.79714 0.88568,2.69549 0.62666,1.90479 1.25145,3.81017 1.87517,5.71593 1.40544,4.28731 2.8394,8.56508 4.27154,12.84352 0.81125,2.42459 1.62053,4.84983 2.42986,7.27506 0.24369,0.73013 0.24369,0.73013 0.49229,1.47501 10.00379,29.97645 10.00379,29.97645 13.69147,41.25176 0.31615,0.96636 0.63304,1.93249 0.95076,2.89834 0.42218,1.28469 0.84122,2.57036 1.25909,3.85646 0.33249,1.01936 0.33249,1.01936 0.6717,2.0593 0.68346,2.32711 1.21338,4.66732 1.7093,7.04031 0.31614,-0.004 0.63228,-0.007 0.958,-0.0112 3.28987,-0.037 6.57967,-0.0622 9.86969,-0.0806 1.22789,-0.008 2.45576,-0.0198 3.68359,-0.0343 1.76475,-0.0203 3.52929,-0.0298 5.29414,-0.0371 0.82367,-0.0129 0.82367,-0.0129 1.66397,-0.0261 0.51296,-1.3e-4 1.02591,-2.5e-4 1.55441,-3.8e-4 0.67553,-0.006 0.67553,-0.006 1.36472,-0.0113 1.56699,0.2538 2.31406,0.79935 3.46965,1.87249 0.76066,1.66156 0.76066,1.66156 1.44514,3.72386 0.12939,0.3829 0.25879,0.7658 0.3921,1.16031 0.41607,1.23679 0.8218,2.4767 1.22716,3.71704 0.25468,0.76234 0.51005,1.52445 0.7661,2.28633 0.58453,1.74455 1.16359,3.49082 1.73991,5.2381 1.2662,3.8364 2.54533,7.66848 3.82381,11.50081 2.33423,6.99745 4.66496,13.99607 6.99317,20.99553 1.30415,3.9204 2.60908,7.84054 3.91425,11.7606 0.15101,0.4536 0.30203,0.9072 0.45762,1.37455 3.6229,10.88114 7.25446,21.7581 10.99725,32.59873 2.38343,6.90799 4.65132,13.85048 6.89396,20.80534 3.14799,9.75853 6.45921,19.458 9.82274,29.14411 0.51205,-2.73519 0.7433,-5.43562 0.91845,-8.20728 0.0318,-0.48623 0.0635,-0.97246 0.0963,-1.47342 0.10552,-1.63651 0.20753,-3.27322 0.30855,-4.91002 0.0359,-0.57784 0.0717,-1.15569 0.10867,-1.75104 1.8564,-30.18492 2.88259,-60.40242 3.58254,-90.6336 0.0123,-0.52889 0.0246,-1.05777 0.0373,-1.60268 0.8815,-37.90049 0.8815,-37.90049 1.21403,-75.80888 0.002,-1.16696 0.006,-2.33389 0.011,-3.50084 0.006,-2.12436 0.005,-4.24854 -4e-5,-6.3729 0.002,-0.59858 0.004,-1.19716 0.007,-1.81388 -0.0256,-4.18386 -0.53608,-8.18844 -1.26901,-12.30455 -0.13354,-0.75019 -0.13354,-0.75019 -0.26979,-1.51553 -1.61001,-8.82357 -4.30644,-20.33276 -10.87348,-26.8998 -9.46954,16.24181 -13.89802,33.17936 -17.91261,51.40376 -0.49781,2.18964 -1.03627,4.36465 -1.5881,6.54122 -5.45249,-4.87544 -7.35363,-13.62388 -7.88857,-20.66224 -0.58161,-10.6949 1.97787,-20.52575 6.77424,-30.03962 0.17139,-0.34214 0.34277,-0.68428 0.51935,-1.03679 1.63676,-3.23147 3.27486,-6.20997 5.60945,-8.99215 -11.09039,4.20375 -19.85818,11.44192 -28.41533,19.50072 -0.36773,0.34402 -0.73546,0.68805 -1.11433,1.0425 -2.36424,2.28215 -4.41547,4.78612 -6.47267,7.34542 -1.33432,1.6493 -2.70407,3.26369 -4.07861,4.87953 -2.37527,2.8332 -4.54199,5.77446 -6.64556,8.81409 -0.57017,0.81974 -1.15678,1.628 -1.74671,2.43364 -0.18387,0 -0.36773,0 -0.55717,0 -2.88166,-12.43856 -1.00636,-24.20008 5.57164,-35.10129 7.18196,-10.80966 18.84522,-17.35627 30.70152,-21.85696 1.12795,-0.4585 2.20325,-0.98679 3.28544,-1.5439 -17.96832,-5.45417 -38.00078,-6.74724 -56.2735,-1.67149 3.19083,-8.35551 8.63282,-13.07554 16.7149,-16.7149 2.02087,-0.72983 4.02604,-1.23875 6.1288,-1.67149 0.4611,-0.11348 0.92219,-0.22695 1.39726,-0.34387 13.18907,-2.807 27.69294,-0.98929 39.27566,5.91551 -4.37266,-7.24942 -10.32937,-13.22531 -16.25139,-19.20243 -0.62294,-0.62877 -1.24468,-1.25875 -1.86505,-1.89005 -4.4495,-4.51713 -9.12443,-8.53801 -14.19903,-12.33732 -0.46695,-0.35034 -0.46695,-0.35034 -0.94333,-0.70775 -3.21496,-2.54168 -3.21496,-2.54168 -6.85696,-4.30673 0,-0.36772 0,-0.73545 0,-1.11432 9.88087,-2.82149 19.20827,-1.11225 28.24122,3.44745 14.12161,8.09196 21.83736,20.59829 27.47512,35.55398 0,0.36773 0,0.73546 0,1.11433 0.36773,0 0.73545,0 1.11432,0 0.1002,-0.60223 0.1002,-0.60223 0.20241,-1.21662 3.00956,-13.31221 13.67279,-26.64176 24.90477,-33.95432 7.90109,-4.69445 17.83484,-8.32828 27.05724,-6.05915 0.93081,0.2758 0.93081,0.2758 1.88043,0.55716 -0.65732,1.97197 -1.18132,2.26715 -2.82064,3.48228 -6.59699,5.15273 -12.46564,11.19895 -18.38639,17.09795 -0.49041,0.4878 -0.98082,0.97561 -1.48609,1.47819 -2.76528,2.77215 -5.4186,5.59935 -7.95086,8.58557 -0.27683,0.32342 -0.55366,0.64684 -0.83888,0.98007 -0.77966,0.91283 -1.55546,1.82878 -2.32999,2.74596 -0.25605,0.30201 -0.51209,0.60402 -0.77589,0.91518 -1.49984,1.7737 -2.97032,3.56703 -4.41269,5.38773 0.81984,-0.44386 0.81984,-0.44386 1.65625,-0.89669 13.41704,-7.08884 29.89608,-8.8907 44.56844,-4.49675 8.453,2.82443 16.06655,8.26724 20.63491,15.97954 0.18386,0.55159 0.36772,1.10319 0.55716,1.67149 -6.85864,-1.01052 -6.85864,-1.01052 -10.02894,-1.70631 -16.13823,-3.30713 -34.55806,-1.54532 -50.1447,3.3778 0.32755,0.11169 0.6551,0.22337 0.99258,0.33844 14.79277,5.08911 29.66311,12.23114 37.12958,26.81239 0.29016,0.60115 0.58032,1.2023 0.87927,1.82167 0.23271,0.48048 0.46541,0.96097 0.70516,1.45602 2.55402,5.82278 3.34062,11.71586 3.3691,18.00987 0.005,0.74208 0.005,0.74208 0.009,1.49915 -0.0315,2.87535 -0.36775,5.28432 -1.29769,8.00745 -2.21354,-0.73785 -2.90016,-2.14851 -4.1439,-4.00461 -2.98134,-4.31039 -6.31349,-8.2339 -9.78518,-12.15313 -0.43022,-0.49269 -0.86043,-0.98539 -1.30368,-1.49302 -7.80882,-8.83964 -16.3367,-16.46143 -26.62414,-22.32571 -0.5491,-0.31512 -0.5491,-0.31512 -1.10929,-0.6366 -2.5088,-1.40154 -5.02453,-2.4488 -7.73567,-3.40283 0.44816,0.45966 0.89633,0.91932 1.35808,1.3929 8.71877,10.22344 12.68689,24.24013 12.67547,37.43442 -4.5e-4,0.53938 -9e-4,1.07876 -10e-4,1.63449 -0.0388,4.55276 -0.18712,9.13807 -1.78936,13.45108 -1.91851,6.37885 -0.32838,14.55361 0.0922,21.11434 0.70323,11.03396 1.2797,22.07068 1.75072,33.11687 0.0419,0.98116 0.0419,0.98116 0.0847,1.98215 0.14242,3.34734 0.28301,6.69475 0.42247,10.04221 0.29374,7.04619 0.59765,14.09195 0.90102,21.13774 0.0294,0.68401 0.0588,1.36802 0.0891,2.07276 0.62323,14.48684 1.32528,28.96747 2.13195,43.44535 0.12809,2.30263 0.25511,4.60532 0.38196,6.90802 0.47975,8.70424 0.96289,17.40828 1.4495,26.11213 0.0338,0.6041 0.0338,0.6041 0.0682,1.2204 0.0662,1.18453 0.13244,2.36906 0.19866,3.55358 0.60926,10.89818 0.60926,10.89818 0.87028,15.66048 0.0463,0.84113 0.0929,1.68223 0.14,2.52332 0.0621,1.10889 0.12268,2.21786 0.18321,3.32684 0.0488,0.88186 0.0488,0.88186 0.0985,1.78154 0.0221,0.56052 0.0442,1.12105 0.0669,1.69856 0.0307,0.68226 0.0614,1.36452 0.093,2.06746 -0.093,1.83268 -0.093,1.83268 -1.4163,3.43452 -1.82695,1.47896 -2.63561,1.81071 -4.92348,1.8129 -0.49615,0.002 -0.99231,0.004 -1.50349,0.006 -0.54959,-8.3e-4 -1.09918,-0.002 -1.66543,-0.003 -0.58274,0.001 -1.16549,0.003 -1.76589,0.004 -1.97567,0.004 -3.95131,0.003 -5.92698,0.003 -1.42156,0.002 -2.84311,0.004 -4.26467,0.006 -3.51191,0.005 -7.02381,0.007 -10.53572,0.009 -4.20437,0.002 -8.40873,0.006 -12.6131,0.0114 -10.16298,0.0116 -20.32596,0.0174 -30.48894,0.0223 -4.80531,0.002 -9.61062,0.005 -14.41593,0.008 -16.44078,0.01 -32.88156,0.0183 -49.32235,0.0225 -1.03251,2.7e-4 -2.06502,5.3e-4 -3.09753,8e-4 -0.76806,1.9e-4 -0.76806,1.9e-4 -1.55165,4e-4 -2.59438,6.6e-4 -5.18876,0.001 -7.78315,0.002 -0.51486,1.4e-4 -1.02973,2.7e-4 -1.5602,4.1e-4 -16.7006,0.004 -33.40117,0.0175 -50.10175,0.0356 -17.64625,0.0191 -35.29249,0.0301 -52.93875,0.0319 -1.93583,2.3e-4 -3.87166,5e-4 -5.80749,7.9e-4 -0.47668,7e-5 -0.95336,1.4e-4 -1.44448,2.1e-4 -7.68236,10e-4 -15.3647,0.01 -23.04705,0.0214 -7.71677,0.0113 -15.43351,0.0144 -23.15028,0.009 -4.58835,-0.003 -9.17659,4e-4 -13.76492,0.0126 -3.42048,0.008 -6.84087,0.005 -10.26135,-0.003 -1.38805,-0.001 -2.7761,10e-4 -4.16413,0.008 -1.87898,0.008 -3.75745,0.003 -5.63642,-0.006 -0.54568,0.006 -1.09136,0.0114 -1.65357,0.0173 -2.39758,-0.0247 -3.71173,-0.0699 -5.78824,-1.35497 -2.57807,-2.81149 -1.7184,-6.68097 -1.57467,-10.27719 0.17436,-3.84419 0.38891,-7.68625 0.60056,-11.52853 0.0691,-1.27822 0.13792,-2.55646 0.20662,-3.83471 0.14639,-2.71909 0.29375,-5.43812 0.44187,-8.15712 0.35118,-6.45174 0.69539,-12.90386 1.0401,-19.35595 0.11579,-2.16714 0.23174,-4.33428 0.3477,-6.50141 0.64195,-12.00599 1.27454,-24.01239 1.87256,-36.02066 0.0222,-0.445 0.0444,-0.89 0.0673,-1.34849 0.80989,-16.2743 1.46193,-32.55357 2.03558,-48.83783 0.46234,-13.0394 1.11383,-26.0638 1.84469,-39.09072 0.0251,-0.4479 0.0501,-0.89579 0.0759,-1.35726 0.0476,-0.85053 0.0955,-1.70105 0.14366,-2.55155 0.49029,-7.54038 0.49029,-7.54038 -0.92861,-14.90384 -3.7715,-12.91741 -1.29386,-29.47005 4.99842,-41.34598 1.99758,-3.53483 4.33142,-6.83109 6.70201,-10.12198 -10.52123,4.47712 -18.81785,10.60123 -26.94679,18.60403 -0.75367,0.74153 -1.51688,1.47336 -2.28252,2.20254 -2.68914,2.59348 -5.02284,5.4334 -7.35194,8.35038 -0.84503,1.04953 -1.70153,2.08905 -2.55947,3.12805 -4.66924,5.65792 -4.66924,5.65792 -8.77532,11.7309 -1.11433,-0.55716 -1.11433,-0.55716 -1.46691,-1.49737 -2.43283,-11.43043 0.0211,-23.46611 6.0635,-33.4298 6.67402,-9.88903 16.35229,-15.85866 27.1269,-20.47576 0.44174,-0.19073 0.88349,-0.38146 1.33863,-0.57797 2.55935,-1.0612 4.85032,-1.70311 7.6108,-1.96408 0,-0.36773 0,-0.73546 0,-1.11433 -0.54728,-0.0697 -1.09456,-0.13933 -1.65843,-0.21111 -1.91866,-0.27389 -3.78253,-0.68154 -5.66672,-1.1312 -14.5155,-3.44236 -29.64746,-3.62635 -44.3376,-1.10317 -1.881,0.32171 -3.76802,0.59697 -5.65543,0.87846 -0.952,0.14974 -1.90391,0.30009 -2.85546,0.45269 3.6281,-8.12694 10.79049,-13.41941 18.94355,-16.7149 5.73752,-1.95278 11.00623,-2.57142 17.03729,-2.4886 1.27498,0.0161 2.54865,0.0114 3.82369,0.004 7.65059,0.01 15.33065,0.7376 22.35401,3.98176 0.40902,0.17848 0.81805,0.35695 1.23947,0.54084 0.97221,0.42574 1.93904,0.86375 2.90443,1.30476 -3.64057,-4.34146 -7.31717,-8.63451 -11.14327,-12.81475 -0.24751,-0.27266 -0.49503,-0.54531 -0.75005,-0.82623 -5.23711,-5.76891 -10.55911,-11.52884 -16.50025,-16.58513 -1.47082,-1.26231 -2.9046,-2.56268 -4.33978,-3.86532 -0.50275,-0.45607 -1.0055,-0.91214 -1.52349,-1.38203 -1.24017,-1.14965 -2.4444,-2.32271 -3.63027,-3.52797 9.76063,-3.87656 19.86373,-0.34117 28.62862,4.65101 z"
       fill="#131312"
       id="path2"
       style="stroke-width:0.557163" />
    <path
       d="m 376.97623,606.01699 c 75.01648,0 150.03295,0 227.32265,0 5.94162,17.82488 11.88325,35.64975 17.82487,53.47463 0.19776,0.59313 0.19776,0.59313 0.39951,1.19825 0.25513,0.76557 0.51005,1.53122 0.76474,2.29694 0.57973,1.74222 1.16357,3.48285 1.75433,5.22137 0.20469,0.60402 0.40938,1.20804 0.62028,1.83036 0.1792,0.52466 0.35839,1.04932 0.54302,1.58988 0.37978,1.24818 0.37978,1.24818 0.37978,2.3625 -12.31888,0 -24.63776,0 -37.32994,0 -0.10447,-15.46128 -0.10447,-15.46128 -0.11576,-20.30109 -0.0148,-1.28574 -0.0305,-2.57146 -0.0475,-3.85716 0.002,-0.65152 0.004,-1.30303 0.007,-1.97429 -0.10748,-6.30621 -1.93798,-11.63018 -6.3597,-16.22711 -4.92808,-4.21809 -10.38536,-5.87083 -16.76714,-5.72616 -5.86882,0.5569 -10.89043,2.78157 -15.16093,6.85572 -4.26344,5.41431 -5.26275,11.04482 -5.29958,17.77917 -0.0139,0.89604 -0.0139,0.89604 -0.0281,1.81017 -0.032,2.21061 -0.0501,4.42141 -0.0699,6.63216 -0.0575,4.95284 -0.11492,9.90567 -0.17412,15.00859 -10.84797,0 -21.69594,0 -32.87263,0 -0.1393,-15.21752 -0.1393,-15.21752 -0.16596,-19.98456 -0.0164,-1.26428 -0.0335,-2.52856 -0.0517,-3.79282 -6.2e-4,-0.64233 -10e-4,-1.28467 -0.002,-1.94647 -0.11372,-6.51589 -1.83045,-11.91101 -6.46641,-16.62056 -4.66877,-4.02232 -10.56471,-6.03171 -16.70838,-5.78275 -6.66298,0.83828 -11.79865,4.0147 -16.00756,9.18231 -2.20106,3.26133 -3.55238,6.87514 -3.61408,10.79763 -0.0112,0.63327 -0.0225,1.26653 -0.0341,1.91899 -0.009,0.66514 -0.0184,1.33027 -0.0278,2.01557 -0.0156,0.91751 -0.0156,0.91751 -0.0315,1.85356 -0.0381,2.28762 -0.0716,4.57531 -0.10563,6.863 -0.0804,5.11371 -0.16088,10.22743 -0.24376,15.4961 -10.84797,0 -21.69594,0 -32.87263,0 -0.13929,-15.4961 -0.13929,-15.4961 -0.16595,-20.35129 -0.0164,-1.28713 -0.0336,-2.57426 -0.0517,-3.86137 -9.5e-4,-0.98155 -9.5e-4,-0.98155 -0.002,-1.98293 -0.12415,-7.24059 -2.29289,-12.58762 -7.45451,-17.68102 -4.38216,-3.69803 -10.18096,-5.00767 -15.81604,-4.77071 -5.87606,0.64661 -10.61958,3.28401 -14.60595,7.66099 -4.22449,5.33432 -4.9709,10.80279 -5.03623,17.42659 -0.01,0.59848 -0.0197,1.19696 -0.0298,1.81357 -0.035,2.22256 -0.0608,4.44526 -0.0877,6.66794 -0.069,4.97582 -0.1379,9.95163 -0.20893,15.07823 -12.50275,0 -25.00549,0 -37.88711,0 0.72726,-3.27269 1.471,-6.30033 2.57253,-9.43042 0.2114,-0.61204 0.2114,-0.61204 0.42708,-1.23645 0.3027,-0.8757 0.60659,-1.75099 0.91157,-2.6259 0.82437,-2.3661 1.63887,-4.73562 2.45485,-7.10463 0.16726,-0.48487 0.33452,-0.96974 0.50685,-1.4693 1.64917,-4.78515 3.26332,-9.58164 4.86237,-14.38374 0.13437,-0.40316 0.26874,-0.80632 0.40718,-1.2217 2.54593,-7.64523 5.03371,-15.30927 7.50098,-22.98022 0.13603,-0.4219 0.27206,-0.84381 0.41221,-1.2785 0.25474,-0.79023 0.50875,-1.58069 0.76191,-2.37143 0.84918,-2.63199 0.84918,-2.63199 1.469,-3.87164 z"
       fill="#ece0cb"
       id="path3"
       style="stroke-width:0.557163" />
    <path
       d="m 399.81993,536.37158 c 59.75577,0 119.51154,0 181.07809,0 9.25625,27.10759 9.25625,27.10759 13.14965,38.78855 0.61138,1.83421 1.22516,3.66762 1.83935,5.50089 0.59854,1.78803 1.19473,3.57684 1.79119,5.36556 0.21928,0.65383 0.43855,1.30765 0.66447,1.98128 0.29688,0.89321 0.29688,0.89321 0.59976,1.80447 0.17443,0.5225 0.34886,1.045 0.52858,1.58333 0.37055,1.24941 0.37055,1.24941 0.37055,2.36374 -10.11251,0 -20.22503,0 -30.64398,0 -0.10447,-9.29766 -0.10447,-9.29766 -0.11576,-12.18292 -0.0926,-6.53063 -0.97437,-12.24334 -5.45588,-17.34674 -1.3009,-0.98631 -1.3009,-0.98631 -2.71617,-1.77596 -0.45822,-0.2722 -0.91644,-0.5444 -1.38855,-0.82486 -4.3207,-2.18599 -8.91091,-2.66159 -13.62439,-1.45385 -4.64804,1.75546 -8.19548,4.1681 -10.68622,8.51198 -2.21379,4.95261 -1.98071,10.02634 -2.05454,15.35681 -0.0575,3.20613 -0.11491,6.41226 -0.17411,9.71554 -7.90615,0 -15.8123,0 -23.95802,0 -0.1393,-9.40213 -0.1393,-9.40213 -0.16596,-12.3335 -0.11241,-6.50489 -1.07098,-11.95145 -5.64073,-16.94805 -3.60977,-3.45506 -7.959,-4.80965 -12.89311,-4.984 -5.03117,0.1848 -8.95607,1.81205 -12.63629,5.25388 -3.27815,3.86093 -4.39469,8.12499 -4.49866,13.0694 -0.0156,0.60536 -0.0156,0.60536 -0.0315,1.22294 -0.038,1.50536 -0.0716,3.01083 -0.10562,4.51628 -0.0804,3.367 -0.16088,6.73401 -0.24376,10.20305 -7.90615,0 -15.8123,0 -23.95803,0 -0.10446,-9.29766 -0.10446,-9.29766 -0.11575,-12.18292 -0.0926,-6.53291 -0.97627,-12.23983 -5.45588,-17.34674 -4.63588,-3.44002 -9.28355,-4.99971 -15.04341,-4.4573 -4.69184,0.84467 -7.98869,2.91754 -11.28256,6.30291 -0.32176,0.49413 -0.64352,0.98826 -0.97503,1.49737 -0.18746,0.28379 -0.37491,0.56757 -0.56805,0.85996 -2.52887,4.61141 -2.03608,9.94773 -2.07848,15.05402 -0.046,3.38999 -0.0919,6.77998 -0.13929,10.2727 -10.66411,0 -21.32821,0 -32.31547,0 1.61903,-5.50471 3.22894,-10.96296 5.06874,-16.39048 0.8637,-2.55384 1.72278,-5.10919 2.57919,-7.66548 0.14942,-0.44584 0.29884,-0.89168 0.45279,-1.35102 1.08462,-3.24477 2.1458,-6.49666 3.19489,-9.75307 0.14859,-0.46089 0.29718,-0.92178 0.45027,-1.39664 0.71256,-2.21216 1.42237,-4.42516 2.12893,-6.63925 0.26106,-0.81237 0.52218,-1.62471 0.78337,-2.43704 0.22296,-0.69807 0.44592,-1.39613 0.67564,-2.11535 1.11556,-3.24465 2.37805,-6.43712 3.60973,-9.63949 z"
       fill="#ede0cc"
       id="path4"
       style="stroke-width:0.557163" />
    <path
       d="m 443.83583,486.78404 c 30.88914,0 61.77828,0 93.60345,0 1.35309,3.38273 2.65891,6.70118 3.79132,10.15082 0.20598,0.6203 0.20598,0.6203 0.41612,1.25314 0.43311,1.30549 0.8639,2.61173 1.29454,3.91803 0.2835,0.85611 0.56716,1.71217 0.85098,2.56817 0.42488,1.28144 0.84928,2.56302 1.27195,3.84519 0.73931,2.24176 1.48698,4.48026 2.24787,6.7148 0.15518,0.45807 0.31037,0.91613 0.47026,1.38808 0.29777,0.87794 0.59751,1.75521 0.89951,2.6317 0.57031,1.68639 1.01504,3.06675 1.01504,4.86001 -6.43524,0 -12.87047,0 -19.50072,0 -0.17411,-6.09397 -0.17411,-6.09397 -0.21614,-7.98297 -0.20432,-5.62404 -1.26979,-9.66508 -5.23361,-13.77252 -3.70797,-3.26406 -7.35702,-3.65784 -12.21189,-3.49097 -4.52703,0.42859 -7.79913,2.25457 -10.75369,5.74574 -3.9156,5.74742 -3.2269,12.8455 -3.34298,19.50072 -5.14819,0 -10.29638,0 -15.60057,0 -0.13929,-6.37255 -0.13929,-6.37255 -0.16595,-8.34969 -0.17436,-5.42199 -1.63988,-9.55116 -5.38827,-13.52985 -3.5495,-3.0239 -7.62921,-3.57288 -12.17489,-3.40174 -3.85867,0.45507 -6.79588,1.62479 -9.50225,4.4573 -3.48027,4.56806 -4.30742,9.12592 -4.38766,14.76483 -0.046,1.99952 -0.0919,3.99904 -0.13929,6.05915 -6.43524,0 -12.87048,0 -19.50072,0 2.55685,-8.45727 5.21317,-16.86591 8.00922,-25.24646 0.14726,-0.44218 0.29452,-0.88435 0.44624,-1.33993 0.42321,-1.2695 0.84783,-2.53851 1.27313,-3.8073 0.12637,-0.37844 0.25274,-0.75688 0.38294,-1.14678 0.66002,-1.96068 1.37666,-3.86596 2.14606,-5.78947 z"
       fill="#ece0cd"
       id="path5"
       style="stroke-width:0.557163" />
    <path
       d="m 459.99357,436.08217 c 20.04117,0 40.08233,0 60.73081,0 1.09805,2.92816 2.15952,5.8442 3.14057,8.81015 0.13415,0.40319 0.2683,0.80639 0.40652,1.2218 0.43193,1.29877 0.86265,2.59793 1.29326,3.89714 0.44757,1.34807 0.89533,2.69607 1.34311,4.04407 0.29824,0.89795 0.59638,1.79594 0.8944,2.69397 0.8972,2.7023 1.80051,5.40243 2.70949,8.10078 0.20815,0.61911 0.4163,1.23821 0.63076,1.87608 0.38242,1.13651 0.76605,2.27263 1.15105,3.40827 0.16685,0.49701 0.3337,0.99401 0.50561,1.50608 0.14418,0.42671 0.28836,0.85343 0.43692,1.29307 0.30306,1.0357 0.30306,1.0357 0.30306,2.15003 -9.00933,0 -18.01866,0 -27.301,0 -0.2758,-5.79172 -0.2758,-5.79172 -0.55716,-11.70043 -1.24463,-4.45195 -3.29157,-8.37549 -7.41724,-10.77981 -4.73859,-2.17445 -9.02589,-2.78899 -14.06838,-1.1992 -3.76174,1.51734 -6.2975,3.65124 -8.23557,7.23441 -2.16089,5.46398 -1.73186,10.33967 -2.03713,16.44503 -8.6416,0 -17.2832,0 -26.18667,0 1.88044,-7.52176 1.88044,-7.52176 2.71304,-10.05152 0.18591,-0.56876 0.37182,-1.13752 0.56336,-1.72351 0.19506,-0.58874 0.39012,-1.17748 0.59109,-1.78406 0.20523,-0.62569 0.41046,-1.25138 0.62191,-1.89602 0.64873,-1.97608 1.30071,-3.95107 1.9528,-5.92604 0.43949,-1.33697 0.87876,-2.67402 1.31782,-4.01114 1.49139,-4.539 2.98672,-9.07659 4.49757,-13.60915 z"
       fill="#ece0cc"
       id="path6"
       style="stroke-width:0.557163" />
    <path
       d="m 436.03555,641.67545 c 1.23532,1.85299 1.25107,2.41589 1.24083,4.57197 -1.4e-4,0.59934 -2.7e-4,1.19867 -4.1e-4,1.81616 -0.006,0.62905 -0.0114,1.25809 -0.0173,1.9062 -10e-4,0.57882 -0.002,1.15764 -0.003,1.75399 -0.006,2.16418 -0.0214,4.32833 -0.0358,6.49246 -0.023,4.83792 -0.046,9.67584 -0.0696,14.66037 10.29638,0 20.59276,0 31.20115,0 0,-9.92866 0,-19.85731 0,-30.08683 0.18387,0 0.36773,0 0.55716,0 0,10.29638 0,20.59276 0,31.20115 -10.84797,0 -21.69594,0 -32.87263,0 0,-10.6641 0,-21.32821 0,-32.31547 z"
       fill="#f9f3e2"
       id="path7"
       style="stroke-width:0.557163" />
    <path
       d="m 512.36693,642.78977 c 1.22003,1.83005 1.25129,2.3499 1.24083,4.46969 -1.4e-4,0.57671 -2.7e-4,1.15341 -4.1e-4,1.7476 -0.006,0.60498 -0.0114,1.20997 -0.0173,1.83329 -10e-4,0.55691 -0.002,1.11382 -0.003,1.68761 -0.006,2.08184 -0.0214,4.16364 -0.0358,6.24544 -0.023,4.65405 -0.046,9.30811 -0.0697,14.1032 10.29638,0 20.59276,0 31.20115,0 0,-9.74479 0,-19.48958 0,-29.52966 0.18386,0 0.36773,0 0.55716,0 0,10.11251 0,20.22503 0,30.64398 -10.84797,0 -21.69594,0 -32.87263,0 0,-10.29638 0,-20.59276 0,-31.20115 z"
       fill="#faf4e4"
       id="path8"
       style="stroke-width:0.557163" />
    <path
       d="m 586.46965,635.54665 c 2.83558,2.41483 3.6918,6.50218 4.09283,10.07322 0.0624,1.76261 0.059,3.51156 0.025,5.27489 -0.002,0.56281 -0.004,1.12563 -0.007,1.7055 -0.0115,2.06942 -0.0426,4.1387 -0.0716,6.20796 -0.046,4.64256 -0.0919,9.28513 -0.13929,14.06838 11.76729,-0.18387 23.53458,-0.36773 35.65846,-0.55717 0.18386,0.55159 0.36773,1.10319 0.55716,1.67149 -12.31888,0 -24.63776,0 -37.32994,0 -0.13929,-15.53093 -0.13929,-15.53093 -0.16595,-20.40148 -0.0164,-1.28854 -0.0336,-2.57707 -0.0517,-3.86559 -6.3e-4,-0.65722 -10e-4,-1.31443 -0.002,-1.99156 -0.0638,-3.71877 -0.51093,-6.62252 -2.09069,-10.00706 -0.47558,-1.06425 -0.47558,-1.06425 -0.47558,-2.17858 z"
       fill="#fbf5e2"
       id="path9"
       style="stroke-width:0.557163" />
    <path
       d="m 392.57681,641.11828 c 0.5452,1.81072 0.6082,3.40833 0.56927,5.29469 -0.0114,0.62189 -0.0228,1.24377 -0.0345,1.88451 -0.0149,0.65025 -0.0298,1.30051 -0.0451,1.97047 -0.0115,0.60016 -0.023,1.20032 -0.0349,1.81867 -0.0439,2.2406 -0.0929,4.4811 -0.1414,6.7216 -0.10342,5.01029 -0.20685,10.02058 -0.3134,15.1827 -12.50275,0 -25.00549,0 -37.88711,0 0.36773,-0.73545 0.73545,-1.47091 1.11433,-2.22865 0,0.36773 0,0.73545 0,1.11433 11.95115,0 23.9023,0 36.21561,0 -0.0221,-9.82634 -0.0221,-9.82634 -0.0502,-19.65266 -0.002,-1.22982 -0.003,-2.45963 -0.004,-3.68944 -0.003,-0.64108 -0.006,-1.28216 -0.009,-1.94266 -1e-4,-0.91596 -1e-4,-0.91596 -2e-4,-1.85043 -10e-4,-0.53078 -0.002,-1.06156 -0.004,-1.60842 0.067,-1.34322 0.067,-1.34322 0.62417,-3.01471 z"
       fill="#fcf8ec"
       id="path10"
       style="stroke-width:0.557163" />
    <path
       d="m 533.53913,575.93017 c 0.18387,0 0.36773,0 0.55717,0 0.0137,2.6083 0.0239,5.21658 0.0306,7.82491 0.003,0.88798 0.007,1.77596 0.0114,2.66394 0.007,1.27371 0.01,2.54739 0.0124,3.82111 0.003,0.3993 0.006,0.79861 0.009,1.21001 1.1e-4,0.95571 -0.0286,1.91134 -0.0631,2.86642 -0.55717,0.55717 -0.55717,0.55717 -1.57601,0.62417 -0.44417,-10e-4 -0.88834,-0.002 -1.34597,-0.004 -0.50193,-4e-5 -1.00385,-9e-5 -1.52099,-1.3e-4 -0.54555,-0.003 -1.0911,-0.006 -1.65318,-0.009 -0.55572,-7.9e-4 -1.11144,-0.002 -1.684,-0.002 -1.78269,-0.003 -3.56534,-0.0101 -5.34802,-0.0172 -1.20537,-0.003 -2.41074,-0.005 -3.61612,-0.008 -2.96175,-0.006 -5.92349,-0.0155 -8.88523,-0.0272 1.11433,-1.11433 1.11433,-1.11433 2.13672,-1.24833 0.41324,0.002 0.82648,0.005 1.25224,0.007 0.70263,1.2e-4 0.70263,1.2e-4 1.41945,2.5e-4 0.75917,0.009 0.75917,0.009 1.53368,0.0174 0.51783,0.002 1.03566,0.003 1.56918,0.005 1.65778,0.006 3.3154,0.0202 4.97313,0.0344 1.12231,0.006 2.24462,0.0107 3.36693,0.0152 2.75468,0.0123 5.50924,0.0315 8.26386,0.0544 -0.003,-0.5203 -0.006,-1.04061 -0.009,-1.57668 -0.009,-1.92405 -0.0165,-3.84807 -0.0218,-5.77214 -0.003,-0.83393 -0.007,-1.66786 -0.0114,-2.50179 -0.007,-1.19627 -0.01,-2.3925 -0.0124,-3.58878 -0.003,-0.72069 -0.006,-1.44137 -0.009,-2.1839 0.0632,-1.64877 0.0632,-1.64877 0.62041,-2.20594 z"
       fill="#070605"
       id="path11"
       style="stroke-width:0.557163" />
    <path
       d="m 473.92265,461.71169 c 1.08106,4.32422 0.22259,8.92017 0,13.37192 -8.6416,0 -17.2832,0 -26.18667,0 0.36773,-0.73546 0.73545,-1.47091 1.11432,-2.22866 0,0.36773 0,0.73546 0,1.11433 8.09002,0 16.18003,0 24.51519,0 0,-3.67728 0,-7.35456 0,-11.14327 0.18387,-0.36772 0.36773,-0.73545 0.55716,-1.11432 z"
       fill="#e4dfd5"
       id="path12"
       style="stroke-width:0.557163" />
    <path
       d="m 506.23813,463.38318 c 0.18386,0 0.36773,0 0.55716,0 0,3.49341 0,6.98683 0,10.5861 8.64161,-0.18386 17.28321,-0.36773 26.18668,-0.55716 0.2758,0.82739 0.2758,0.82739 0.55716,1.67149 -9.00933,0 -18.01866,0 -27.301,0 0,-3.86114 0,-7.72229 0,-11.70043 z"
       fill="#e1dcd3"
       id="path13"
       style="stroke-width:0.557163" />
    <path
       d="m 568.64042,574.25868 c 0.18387,0 0.36773,0 0.55717,0 0,6.43524 0,12.87048 0,19.50072 10.11251,0 20.22503,0 30.64398,0 -0.55159,-1.47091 -1.10318,-2.94182 -1.67149,-4.45731 0.18386,-0.73545 0.36773,-1.47091 0.55716,-2.22865 0.28281,0.78781 0.56037,1.57751 0.83575,2.36794 0.15513,0.43955 0.31027,0.8791 0.47011,1.33197 0.36563,1.31456 0.36563,1.31456 0.36563,3.54321 -15.72036,0.2758 -15.72036,0.2758 -31.75831,0.55717 -0.8722,-1.74442 -0.55799,-3.58097 -0.48969,-5.48893 0.0131,-0.43126 0.0263,-0.86253 0.0399,-1.30686 0.0427,-1.37962 0.0895,-2.75906 0.13643,-4.13854 0.0297,-0.9344 0.059,-1.86881 0.0881,-2.80323 0.072,-2.29261 0.14768,-4.58506 0.22526,-6.87749 z"
       fill="#25221e"
       id="path14"
       style="stroke-width:0.557163" />
    <path
       d="m 579.01759,410.90535 c 0.66579,-0.007 1.33158,-0.0136 2.01754,-0.0207 4.51083,-0.007 8.79949,0.42214 13.23481,1.23947 0,0.18386 0,0.36773 0,0.55716 -8.82547,0 -17.65094,0 -26.74384,0 0,-0.36773 0,-0.73545 0,-1.11432 3.81744,-0.70381 7.61922,-0.65959 11.49149,-0.66164 z"
       fill="#dbd4c6"
       id="path15"
       style="stroke-width:0.557163" />
    <path
       d="m 643.30031,600.44536 c 0.18387,0 0.36773,0 0.55717,0 0.0149,1.65992 0.026,3.3197 0.0348,4.97965 0.005,0.47366 0.009,0.94733 0.0141,1.43535 0.002,0.45068 0.004,0.90136 0.005,1.3657 0.003,0.41724 0.006,0.83448 0.009,1.26436 -0.0632,0.98388 -0.0632,0.98388 -0.62042,1.54104 -0.0349,0.81035 -0.0331,1.62234 -0.0152,2.43324 0.007,0.49342 0.0136,0.98683 0.0207,1.4952 0.0195,1.04473 0.0413,2.08941 0.0653,3.13404 0.009,0.74228 0.009,0.74228 0.0185,1.49956 0.009,0.45454 0.0188,0.90908 0.0284,1.3774 -0.11766,1.20383 -0.11766,1.20383 -1.23198,2.87532 -1.95311,-3.90622 -0.51297,-11.05141 -0.34823,-15.39164 0.0172,-0.53489 0.0343,-1.06978 0.052,-1.62088 0.0216,-0.50653 0.0433,-1.01305 0.0656,-1.53492 0.0175,-0.45221 0.035,-0.90442 0.053,-1.37033 0.19226,-1.35758 0.61559,-2.29882 1.29198,-3.48309 z"
       fill="#1a1918"
       id="path16"
       style="stroke-width:0.557163" />
    <path
       d="m 355.24686,671.76227 c 0.18387,0.36773 0.36773,0.73545 0.55717,1.11433 6.80296,0 13.60592,0 20.61504,0 0,0.18386 0,0.36772 0,0.55716 -4.78005,0.54772 -9.50445,0.62438 -14.31213,0.59198 -0.71643,-0.003 -1.43285,-0.005 -2.17098,-0.008 -1.74878,-0.006 -3.49751,-0.0156 -5.24626,-0.0272 0.18386,-0.73545 0.36773,-1.47091 0.55716,-2.22865 z"
       fill="#faf3e0"
       id="path17"
       style="stroke-width:0.557163" />
    <path
       d="m 393.44737,394.74762 c 0.72469,-0.008 1.44937,-0.0158 2.19601,-0.0239 1.77351,0.11691 2.7079,0.29727 4.17655,1.24273 -2.44938,0.6915 -4.7838,0.65964 -7.31277,0.66163 -0.68841,0.0102 -0.68841,0.0102 -1.39073,0.0207 -1.18543,0.003 -2.37063,-0.0568 -3.55409,-0.12514 -0.36773,-0.36773 -0.73546,-0.73546 -1.11433,-1.11433 2.35103,-0.56624 4.58475,-0.64964 6.99936,-0.66163 z"
       fill="#1e1e1c"
       id="path18"
       style="stroke-width:0.557163" />
    <path
       d="m 337.9748,623.28906 c 0.55159,0.18386 1.10318,0.36773 1.67149,0.55716 0,4.78046 0,9.56092 0,14.48625 -0.18387,0 -0.36773,0 -0.55717,0 -0.0337,-0.46972 -0.0675,-0.93943 -0.10229,-1.42338 -0.0467,-0.61049 -0.0934,-1.22097 -0.14146,-1.84996 -0.0452,-0.60761 -0.0905,-1.21522 -0.13712,-1.84125 -0.0816,-1.542 -0.0816,-1.542 -0.73345,-2.6857 -0.0395,-1.22982 -0.0469,-2.46081 -0.0348,-3.69121 0.005,-0.66219 0.01,-1.32439 0.0152,-2.00665 0.006,-0.50994 0.0129,-1.01987 0.0196,-1.54526 z"
       fill="#1f1e1b"
       id="path19"
       style="stroke-width:0.557163" />
    <path
       d="m 663.91536,413.23848 c 0,0.36772 0,0.73545 0,1.11432 -0.35552,0.0611 -0.71104,0.1221 -1.07733,0.185 -0.46038,0.0883 -0.92076,0.17668 -1.39509,0.2677 -0.45894,0.084 -0.91788,0.16806 -1.39073,0.25464 -0.56991,0.20146 -0.56991,0.20146 -1.15132,0.40699 -0.18387,0.55159 -0.36773,1.10318 -0.55717,1.67149 0.55159,0.18386 1.10319,0.36773 1.67149,0.55716 -2.25989,-0.26075 -4.15972,-0.49004 -6.12879,-1.67149 3.13854,-1.46911 6.51172,-2.78581 10.02894,-2.78581 z"
       fill="#ece6db"
       id="path20"
       style="stroke-width:0.557163" />
    <path
       d="m 394.2483,360.86512 c 3.58867,-0.13485 7.17163,-0.14568 10.5861,1.11433 0.18386,0.36773 0.36773,0.73545 0.55716,1.11432 -1.47503,0.81381 -2.16986,1.11433 -3.90014,1.11433 0,-0.73545 0,-1.47091 0,-2.22865 -0.57422,0.0194 -0.57422,0.0194 -1.16003,0.0392 -0.75305,0.0151 -0.75305,0.0151 -1.52132,0.0305 -0.49772,0.0129 -0.99545,0.0259 -1.50826,0.0392 -1.38202,-0.10882 -1.38202,-0.10882 -3.05351,-1.22315 z"
       fill="#0b0b0a"
       id="path21"
       style="stroke-width:0.557163" />
    <path
       d="m 410.9632,452.79707 c 0.36772,0 0.73545,0 1.11432,0 0.18833,1.41582 0.3736,2.83194 0.55717,4.24837 0.0531,0.39718 0.10629,0.79435 0.16105,1.20356 0.29363,2.28608 0.45443,4.49481 0.39611,6.80567 -0.55159,0 -1.10318,0 -1.67149,0 0.006,-0.51137 0.0129,-1.02275 0.0196,-1.54961 0.0267,-3.62646 -0.003,-7.12471 -0.57675,-10.70799 z"
       fill="#1f1e1b"
       id="path22"
       style="stroke-width:0.557163" />
    <path
       d="m 321.81706,549.7435 c 0.18387,0 0.36773,0 0.55716,0 0,3.86114 0,7.72228 0,11.70043 -0.55159,0 -1.10318,0 -1.67149,0 0,-2.02251 0,-4.04501 0,-6.1288 0.18387,0 0.36773,0 0.55717,0 0.18386,-1.83864 0.36773,-3.67728 0.55716,-5.57163 z"
       fill="#1a1a17"
       id="path23"
       style="stroke-width:0.557163" />
    <path
       d="m 644.9718,429.39621 c 0.82572,0.25022 1.64951,0.50678 2.47241,0.7661 0.45895,0.14221 0.91789,0.28442 1.39074,0.43093 1.15132,0.47446 1.15132,0.47446 1.70849,1.58879 -0.36773,0.36773 -0.73546,0.73546 -1.11433,1.11433 0.43093,0.65501 0.43093,0.65501 0.87057,1.32326 0.2643,0.48264 0.52861,0.96528 0.80092,1.46255 -0.18387,0.36773 -0.36773,0.73546 -0.55716,1.11433 -0.72009,-0.98634 -1.43966,-1.97306 -2.15901,-2.95993 -0.40077,-0.54944 -0.80153,-1.09887 -1.21444,-1.66496 -0.75268,-1.04438 -1.4841,-2.10427 -2.19819,-3.1754 z"
       fill="#ece6db"
       id="path24"
       style="stroke-width:0.557163" />
    <path
       d="m 434.92122,559.77244 c -0.18386,0.36772 -0.36773,0.73545 -0.55716,1.11432 -2.39023,-0.18386 -4.78046,-0.36773 -7.24313,-0.55716 0,0.36773 0,0.73546 0,1.11433 -1.65477,-0.2758 -1.65477,-0.2758 -3.34298,-0.55717 2.8753,-1.91686 7.93323,-2.71934 11.14327,-1.11432 z"
       fill="#272522"
       id="path25"
       style="stroke-width:0.557163" />
    <path
       d="m 325.7172,392.62343 c 3.11171,2.47666 5.45581,5.15072 7.80029,8.35745 -0.55159,0.2758 -0.55159,0.2758 -1.11433,0.55717 -1.46255,-0.69646 -1.46255,-0.69646 -2.78581,-1.67149 0,-0.5516 0,-1.10319 0,-1.67149 -0.85763,-1.14092 -0.85763,-1.14092 -1.95007,-2.26348 -1.95008,-2.07776 -1.95008,-2.07776 -1.95008,-3.30816 z"
       fill="#eeeae0"
       id="path26"
       style="stroke-width:0.557163" />
    <path
       d="m 609.87051,394.29492 c 2.61624,1.84676 4.30392,4.10228 6.1288,6.68596 -0.18387,0.36773 -0.36773,0.73546 -0.55717,1.11433 -1.47091,-0.91932 -2.94182,-1.83864 -4.4573,-2.78582 0.55159,-0.18386 1.10318,-0.36773 1.67149,-0.55716 -0.45966,-0.52861 -0.91932,-1.05722 -1.39291,-1.60185 -1.39291,-1.60184 -1.39291,-1.60184 -1.39291,-2.85546 z"
       fill="#efeae0"
       id="path27"
       style="stroke-width:0.557163" />
    <path
       d="m 602.62739,414.3528 c 4.77568,0.39798 4.77568,0.39798 6.68596,2.22866 -1.84561,0.6268 -1.84561,0.6268 -3.90015,1.11432 -0.55159,-0.36772 -1.10318,-0.73545 -1.67149,-1.11432 0,-0.36773 0,-0.73546 0,-1.11433 -0.36772,-0.36773 -0.73545,-0.73546 -1.11432,-1.11433 z"
       fill="#efe8da"
       id="path28"
       style="stroke-width:0.557163" />
    <path
       d="m 297.6501,361.35264 c 0.43668,0.023 0.87335,0.046 1.32326,0.0696 -0.55159,0.18387 -1.10318,0.36773 -1.67149,0.55717 1.76369,2.16682 3.56788,4.18229 5.57164,6.1288 -1.96254,-0.87123 -3.49411,-2.0587 -5.15376,-3.41263 -0.49701,-0.40364 -0.99402,-0.80728 -1.50609,-1.22315 -0.37634,-0.30883 -0.75269,-0.61767 -1.14044,-0.93586 1.11433,-1.11433 1.11433,-1.11433 2.57688,-1.18397 z"
       fill="#0e0d0b"
       id="path29"
       style="stroke-width:0.557163" />
    <path
       d="m 651.1006,397.08074 c 0.18386,0.55159 0.36773,1.10318 0.55716,1.67149 0.73546,-0.18386 1.47091,-0.36773 2.22866,-0.55716 -1.2069,1.28635 -2.4471,2.25812 -3.93497,3.20368 -0.38568,0.24994 -0.77137,0.49988 -1.16874,0.7574 -0.33828,0.16375 -0.67656,0.32751 -1.02509,0.49622 -0.36773,-0.18386 -0.73546,-0.36773 -1.11433,-0.55716 1.47091,-1.65478 2.94182,-3.30955 4.45731,-5.01447 z"
       fill="#f1ede3"
       id="path30"
       style="stroke-width:0.557163" />
    <path
       d="m 346.88941,395.40925 c 1.20001,1.46087 1.89476,2.58749 2.22866,4.45731 0.36772,0 0.73545,0 1.11432,0 0.36773,-1.10319 0.73546,-2.20637 1.11433,-3.34298 0.77555,2.32664 -0.0985,3.41805 -1.11433,5.57163 -0.36773,0 -0.73545,0 -1.11432,0 -0.37528,-0.79913 -0.74582,-1.60049 -1.11433,-2.40277 -0.20685,-0.44601 -0.4137,-0.89202 -0.62681,-1.35155 -0.48752,-1.26015 -0.48752,-1.26015 -0.48752,-2.93164 z"
       fill="#f3eee4"
       id="path31"
       style="stroke-width:0.557163" />
    <path
       d="m 663.35819,649.47573 c 0.82739,0.5516 0.82739,0.5516 1.67149,1.11433 0.16323,1.32762 0.16323,1.32762 0.10447,2.85546 -0.0151,0.50707 -0.0302,1.01413 -0.0457,1.53656 -0.0194,0.38927 -0.0388,0.77854 -0.0588,1.17961 -0.36773,0 -0.73545,0 -1.11432,0 -0.70335,-1.4067 -0.61208,-2.40249 -0.59199,-3.96978 0.005,-0.50707 0.01,-1.01413 0.0152,-1.53656 0.006,-0.38927 0.0129,-0.77854 0.0196,-1.17962 z"
       fill="#1b1a17"
       id="path32"
       style="stroke-width:0.557163" />
    <path
       d="m 436.59271,469.51197 c 0.18386,0 0.36773,0 0.55716,0 -0.0787,0.98685 -0.16059,1.97345 -0.24376,2.95993 -0.0452,0.54944 -0.0905,1.09888 -0.13711,1.66497 -0.17629,1.5039 -0.17629,1.5039 -0.73345,3.17539 -0.55159,0 -1.10319,0 -1.67149,0 0.26638,-0.9868 0.5335,-1.97341 0.80092,-2.95993 0.14867,-0.54944 0.29734,-1.09887 0.45052,-1.66496 0.29791,-1.06663 0.627,-2.12477 0.97721,-3.1754 z"
       fill="#1c1a17"
       id="path33"
       style="stroke-width:0.557163" />
    <path
       d="m 340.20345,640.00396 c 0.55159,0.18386 1.10319,0.36773 1.67149,0.55716 0,2.20637 0,4.41273 0,6.68596 -1.67149,-1.67149 -1.67149,-1.67149 -1.83472,-3.05351 0.0194,-0.49773 0.0388,-0.99546 0.0588,-1.50826 0.0151,-0.50204 0.0302,-1.00407 0.0457,-1.52132 0.0194,-0.38281 0.0388,-0.76562 0.0588,-1.16003 z"
       fill="#e3d7c5"
       id="path34"
       style="stroke-width:0.557163" />
    <path
       d="m 592.59845,535.25725 c 0.90107,1.67678 1.49087,3.32684 2.01971,5.15376 0.14508,0.49701 0.29016,0.99401 0.43964,1.50608 0.10773,0.37635 0.21547,0.75269 0.32646,1.14045 -0.36772,0 -0.73545,0 -1.11432,0 0,-0.5516 0,-1.10319 0,-1.67149 -0.36773,0 -0.73546,0 -1.11433,0 -0.38605,-2.07505 -0.61926,-4.01762 -0.55716,-6.1288 z"
       fill="#1c1b18"
       id="path35"
       style="stroke-width:0.557163" />
    <path
       d="m 617.11363,429.95338 c 0.36773,0.18386 0.73546,0.36772 1.11433,0.55716 -1.65477,2.20637 -1.65477,2.20637 -3.34298,4.45731 -1.11433,-2.22866 -1.11433,-2.22866 -1.11433,-3.34298 1.09464,-0.59492 2.21114,-1.15084 3.34298,-1.67149 z"
       fill="#f3ede1"
       id="path36"
       style="stroke-width:0.557163" />
    <path
       d="m 456.09343,448.89693 c 0.65629,1.96886 0.45896,3.01172 0,5.01447 -0.55159,0.82739 -0.55159,0.82739 -1.11433,1.67149 -0.36773,0 -0.73545,0 -1.11433,0 0.26469,-1.01046 0.53218,-2.02019 0.80093,-3.02958 0.14867,-0.56236 0.29734,-1.12473 0.45052,-1.70413 0.42004,-1.39509 0.42004,-1.39509 0.97721,-1.95225 z"
       fill="#ede6d8"
       id="path37"
       style="stroke-width:0.557163" />
    <path
       d="m 322.37422,414.90997 c 1.47092,0.18386 2.94183,0.36772 4.45731,0.55716 0,0.36773 0,0.73546 0,1.11433 -3.03375,0.82738 -3.03375,0.82738 -6.1288,1.67149 0,-0.36773 0,-0.73546 0,-1.11433 0.91932,-0.18386 1.83864,-0.36773 2.78582,-0.55716 0,-0.36773 0,-0.73546 0,-1.11433 -0.36773,-0.18386 -0.73545,-0.36773 -1.11433,-0.55716 z"
       fill="#f7f2e6"
       id="path38"
       style="stroke-width:0.557163" />
    <path
       d="m 367.50446,398.19507 c 0.18386,0.36772 0.36772,0.73545 0.55716,1.11432 0.36773,0.18387 0.73545,0.36773 1.11433,0.55717 -2.48217,1.65477 -2.48217,1.65477 -5.01447,3.34298 0.97159,-1.94318 1.96571,-3.36175 3.34298,-5.01447 z"
       fill="#ede8de"
       id="path39"
       style="stroke-width:0.557163" />
    <path
       d="m 458.32208,442.21097 c 0.89191,2.22977 0.16314,3.92553 -0.55716,6.1288 -0.36773,0 -0.73546,0 -1.11433,0 0.26076,-2.25989 0.49004,-4.15972 1.67149,-6.1288 z"
       fill="#efe7d9"
       id="path40"
       style="stroke-width:0.557163" />
    <path
       d="m 600.9559,396.52358 c 2.76962,0.22929 5.26245,0.4435 7.80028,1.67149 -0.18386,0.36772 -0.36772,0.73545 -0.55716,1.11432 -0.55159,0 -1.10318,0 -1.67149,0 0,-0.36773 0,-0.73545 0,-1.11432 -1.83864,-0.36773 -3.67728,-0.73546 -5.57163,-1.11433 0,-0.18386 0,-0.36773 0,-0.55716 z"
       fill="#080907"
       id="path41"
       style="stroke-width:0.557163" />
    <path
       d="m 658.34372,506.84192 c 1.23085,1.84628 1.23959,2.42065 1.18397,4.56177 -0.01,0.50204 -0.0201,1.00407 -0.0305,1.52132 -0.0194,0.57422 -0.0194,0.57422 -0.0392,1.16003 -1.75799,-2.10033 -1.8749,-3.38278 -1.67149,-6.1288 0.18386,-0.36772 0.36773,-0.73545 0.55716,-1.11432 z"
       fill="#e2d7c5"
       id="path42"
       style="stroke-width:0.557163" />
    <path
       d="m 373.63325,615.48877 c 0.18387,0 0.36773,0 0.55717,0 0.0696,4.24837 0.0696,4.24837 -0.55717,6.1288 -0.55159,0 -1.10318,0 -1.67149,0 0.55159,-2.02251 1.10319,-4.04501 1.67149,-6.1288 z"
       fill="#dbd5c9"
       id="path43"
       style="stroke-width:0.557163" />
    <path
       d="m 633.82853,658.39035 c 0.78105,1.45795 1.45139,2.80652 1.67149,4.45731 -0.36772,0.36772 -0.73545,0.73545 -1.11432,1.11432 -1.00519,-1.53735 -1.12142,-2.16721 -0.90539,-4.03943 0.11491,-0.50563 0.22983,-1.01125 0.34822,-1.5322 z"
       fill="#1b1a17"
       id="path44"
       style="stroke-width:0.557163" />
    <path
       d="m 472.80833,573.14436 c 0.55159,0.18386 1.10318,0.36772 1.67149,0.55716 0,1.28705 0,2.57409 0,3.90014 -0.55159,-0.18386 -1.10319,-0.36772 -1.67149,-0.55716 0,-1.28705 0,-2.57409 0,-3.90014 z"
       fill="#1f1e1c"
       id="path45"
       style="stroke-width:0.557163" />
    <path
       d="m 337.41763,467.84048 c 0.20573,3.08583 0.20573,3.08583 -0.83574,4.38767 -0.41369,0.31027 -0.41369,0.31027 -0.83575,0.6268 0,-1.47091 0,-2.94182 0,-4.4573 1.11433,-0.55717 1.11433,-0.55717 1.67149,-0.55717 z"
       fill="#dfd4c2"
       id="path46"
       style="stroke-width:0.557163" />
    <path
       d="m 570.86908,445.55395 c 0.36772,0.55159 0.73545,1.10318 1.11432,1.67149 -0.48751,2.05454 -0.48751,2.05454 -1.11432,3.90014 -0.36773,-0.55159 -0.73546,-1.10318 -1.11433,-1.67149 0.48752,-2.05454 0.48752,-2.05454 1.11433,-3.90014 z"
       fill="#1c1b18"
       id="path47"
       style="stroke-width:0.557163" />
    <path
       d="m 444.393,445.55395 c 0.36773,0.36773 0.73545,0.73546 1.11432,1.11433 -0.20893,1.74113 -0.20893,1.74113 -0.55716,3.34298 -0.55159,0 -1.10318,0 -1.67149,0 0.36773,-1.47091 0.73546,-2.94183 1.11433,-4.45731 z"
       fill="#1d1b19"
       id="path48"
       style="stroke-width:0.557163" />
    <path
       d="m 661.12954,396.52358 c 0,0.55159 0,1.10318 0,1.67149 -1.56702,0.34822 -1.56702,0.34822 -3.34298,0.55716 -0.55159,-0.36773 -1.10318,-0.73546 -1.67149,-1.11433 3.76085,-1.11432 3.76085,-1.11432 5.01447,-1.11432 z"
       fill="#1e1d1b"
       id="path49"
       style="stroke-width:0.557163" />
    <path
       d="m 356.91835,628.30353 c 1.11433,1.67149 1.11433,1.67149 0.90539,3.16886 -0.11491,0.42519 -0.22983,0.85037 -0.34822,1.28844 -0.5516,0 -1.10319,0 -1.67149,0 0.36772,-1.47091 0.73545,-2.94182 1.11432,-4.4573 z"
       fill="#1f1e1b"
       id="path50"
       style="stroke-width:0.557163" />
    <path
       d="m 360.8185,616.04593 c 0.55159,0 1.10318,0 1.67149,0 -0.41788,3.20369 -0.41788,3.20369 -1.67149,4.45731 -0.5467,-1.70082 -0.5467,-2.75649 0,-4.45731 z"
       fill="#1c1b19"
       id="path51"
       style="stroke-width:0.557163" />
    <path
       d="m 558.61148,412.68131 c 0,0.55159 0,1.10319 0,1.67149 -1.60184,0.0696 -1.60184,0.0696 -3.34298,0 -0.36772,-0.36773 -0.73545,-0.73545 -1.11432,-1.11432 1.6115,-0.46043 2.72309,-0.55717 4.4573,-0.55717 z"
       fill="#dbd4c4"
       id="path52"
       style="stroke-width:0.557163" />
    <path
       d="m 290.61591,396.52358 c 0,0.55159 0,1.10318 0,1.67149 -1.88042,0.34822 -1.88042,0.34822 -3.90014,0.55716 -0.36773,-0.36773 -0.73546,-0.73546 -1.11433,-1.11433 3.76086,-1.11432 3.76086,-1.11432 5.01447,-1.11432 z"
       fill="#1f1d1b"
       id="path53"
       style="stroke-width:0.557163" />
  </g>
  <circle
     style="fill:#ffcc33;fill-opacity:1;stroke:#000000;stroke-width:0.15987;stroke-opacity:0"
     id="path56"
     cx="14.720886"
     cy="5.9149628"
     r="5.8350334" />
</svg>
